<svg width="128" height="128" viewBox="0 0 128 128" fill="none" xmlns="http://www.w3.org/2000/svg">
<rect width="128" height="128" rx="64" fill="#FD9DEA"/>
<path d="M63.772 98.552C59.54 98.552 55.7067 97.8467 52.272 96.436C48.8987 95.0253 46.2 92.7253 44.176 89.536C42.2133 86.3467 41.232 82.1147 41.232 76.84V52.46C41.232 47.1853 42.2133 42.9533 44.176 39.764C46.2 36.5747 48.8987 34.2747 52.272 32.864C55.6453 31.4533 59.3253 30.748 63.312 30.748C67.728 30.748 71.6533 31.484 75.088 32.956C78.584 34.3667 81.344 36.4213 83.368 39.12C85.392 41.8187 86.404 45.1307 86.404 49.056C86.404 51.816 85.8213 53.656 84.656 54.576C83.4907 55.4347 81.6813 55.864 79.228 55.864C77.3267 55.864 75.6707 55.5573 74.26 54.944C72.8493 54.3307 72.1133 53.196 72.052 51.54C72.052 50.436 71.8987 49.24 71.592 47.952C71.3467 46.664 70.6413 45.56 69.476 44.64C68.372 43.72 66.5013 43.26 63.864 43.26C61.2267 43.26 59.172 44.0267 57.7 45.56C56.2893 47.032 55.584 49.332 55.584 52.46V76.84C55.584 79.968 56.2893 82.2987 57.7 83.832C59.172 85.304 61.196 86.04 63.772 86.04C66.348 86.04 68.372 85.304 69.844 83.832C71.316 82.2987 72.052 79.968 72.052 76.84V73.712H66.624C65.2747 73.712 64.2013 73.16 63.404 72.056C62.668 70.8907 62.3 69.6027 62.3 68.192C62.3 66.8427 62.668 65.5853 63.404 64.42C64.2013 63.2547 65.2747 62.672 66.624 62.672H82.08C83.4907 62.672 84.564 63.132 85.3 64.052C86.036 64.9107 86.404 65.9533 86.404 67.18V76.84C86.404 82.1147 85.392 86.3467 83.368 89.536C81.4053 92.7253 78.7067 95.0253 75.272 96.436C71.8373 97.8467 68.004 98.552 63.772 98.552Z" fill="white"/>
</svg>
